<svg xmlns="http://www.w3.org/2000/svg" viewBox="0 0 25 25" fill="none">
  <g clip-path="url(#clip0_4221_9123)">
    <path d="M12.0313 1.50011C9.85566 1.50011 7.72892 2.14525 5.91998 3.35395C4.11104 4.56264 2.70114 6.28061 1.86858 8.2906C1.03602 10.3006 0.818179 12.5123 1.24262 14.6461C1.66705 16.7799 2.7147 18.7399 4.25308 20.2783C5.79146 21.8167 7.75147 22.8643 9.88526 23.2887C12.0191 23.7132 14.2308 23.4954 16.2408 22.6628C18.2508 21.8302 19.9687 20.4203 21.1774 18.6114C22.3861 16.8024 23.0313 14.6757 23.0313 12.5001C23.0379 11.0537 22.7579 9.62035 22.2074 8.28278C21.657 6.94521 20.847 5.72995 19.8242 4.70718C18.8014 3.68442 17.5862 2.87441 16.2486 2.32396C14.911 1.7735 13.4776 1.49349 12.0313 1.50011ZM12.0313 21.5001C10.2512 21.5001 8.51117 20.9723 7.03112 19.9833C5.55108 18.9944 4.39753 17.5888 3.71634 15.9443C3.03515 14.2997 2.85692 12.4901 3.20419 10.7443C3.55145 8.99847 4.40862 7.39483 5.66729 6.13615C6.92597 4.87748 8.52961 4.02031 10.2754 3.67305C12.0213 3.32578 13.8309 3.50401 15.4754 4.1852C17.1199 4.86639 18.5255 6.01994 19.5145 7.49998C20.5034 8.98002 21.0313 10.7201 21.0313 12.5001C21.0181 14.883 20.0657 17.1646 18.3807 18.8496C16.6957 20.5346 14.4142 21.487 12.0313 21.5001Z" fill="currentColor"/>
    <path d="M12.0312 10.5C11.766 10.5 11.5117 10.6054 11.3241 10.7929C11.1366 10.9804 11.0312 11.2348 11.0312 11.5V17.5C11.0312 17.7652 11.1366 18.0196 11.3241 18.2071C11.5117 18.3946 11.766 18.5 12.0312 18.5C12.2965 18.5 12.5508 18.3946 12.7384 18.2071C12.9259 18.0196 13.0312 17.7652 13.0312 17.5V11.5C13.0312 11.2348 12.9259 10.9804 12.7384 10.7929C12.5508 10.6054 12.2965 10.5 12.0312 10.5Z" fill="currentColor"/>
    <path d="M12.0312 8.5C12.5835 8.5 13.0312 8.05228 13.0312 7.5C13.0312 6.94772 12.5835 6.5 12.0312 6.5C11.479 6.5 11.0312 6.94772 11.0312 7.5C11.0312 8.05228 11.479 8.5 12.0312 8.5Z" fill="currentColor"/>
  </g>
  <defs>
    <clipPath id="clip0_4221_9123">
      <rect width="24" height="24" fill="white" transform="translate(0.03125 0.5)"/>
    </clipPath>
  </defs>
</svg>